<svg id="Camada_1" data-name="Camada 1" xmlns="http://www.w3.org/2000/svg" viewBox="0 0 841.89 595.28"><defs><style>.cls-1{fill:#f15a22;}.cls-1,.cls-2{fill-rule:evenodd;}.cls-2{fill:#131b4b;}.cls-3{fill:none;stroke:#fff;stroke-miterlimit:22.93;stroke-width:0.57px;}</style></defs><path class="cls-1" d="M317,270.14h46.15c30.63,65.66,152.58,72.4,192.38,0h42.17C546.93,404,347.11,368.11,317,270.14Z"/><path class="cls-2" d="M241.35,192.68c52.27-103,239.39-106.23,296.82,0H482c-44.28-44.1-116.72-41.89-161.24,0Z"/><path class="cls-2" d="M125.08,473.82a53.62,53.62,0,0,1-27.59,7.32A45.6,45.6,0,0,1,82,478.58,35.8,35.8,0,0,1,69.54,471a35,35,0,0,1-8.32-12.16,38.78,38.78,0,0,1-2.87-15q0-16.81,11.21-27.1t29.62-10.28A56.59,56.59,0,0,1,112,407.94a57.65,57.65,0,0,1,12.41,4.43V429.3a49.41,49.41,0,0,0-12-5.79,39.68,39.68,0,0,0-12.08-1.92c-7.26,0-13,2-17.17,5.93s-6.27,9.4-6.27,16.35q0,10.11,6,16.14t16.08,6a39.18,39.18,0,0,0,13-2.29,54.73,54.73,0,0,0,13-6.8Z"/><path class="cls-2" d="M157,468.19v-12c-5.26,1.84-8.78,3.48-10.54,4.87a6.15,6.15,0,0,0-2.65,5,5,5,0,0,0,1.44,3.77,5.5,5.5,0,0,0,4,1.39,10,10,0,0,0,3.66-.78,20.68,20.68,0,0,0,4.11-2.25Zm.78,7.16a24.73,24.73,0,0,1-7.2,4.14,23.34,23.34,0,0,1-8,1.34q-7.07,0-10.68-3.43t-3.61-10.19q0-5.9,5.34-9.68t23.38-9a3.42,3.42,0,0,0,.07-.57c0-.21,0-.49,0-.84a5.94,5.94,0,0,0-2.34-5.16c-1.57-1.11-4-1.67-7.25-1.67a20.15,20.15,0,0,0-8.47,2,32.87,32.87,0,0,0-8.44,5.8l.21-12.14a33.31,33.31,0,0,1,9.76-4.45,45.58,45.58,0,0,1,12-1.46q10.59,0,15.31,4.06t4.75,13v19.48a4.54,4.54,0,0,0,.46,2.38,1.78,1.78,0,0,0,1.55.67,8.12,8.12,0,0,0,2-.27,19,19,0,0,0,2.81-1V477a49.66,49.66,0,0,1-7.4,2.94,22.47,22.47,0,0,1-6.11.93,10.44,10.44,0,0,1-5.76-1.37A5.51,5.51,0,0,1,157.79,475.35Z"/><path class="cls-2" d="M180.92,477.26v-10.9a67.41,67.41,0,0,0,8.59,3.28,24.5,24.5,0,0,0,6.63,1.16,12.64,12.64,0,0,0,5.51-.94,3,3,0,0,0,1.87-2.78,3.59,3.59,0,0,0-1.39-2.76,27.44,27.44,0,0,0-6.36-3.27c-.33-.14-.89-.35-1.65-.67q-14-5.81-14-14.94a13.69,13.69,0,0,1,5.19-11.18c3.45-2.81,8-4.22,13.74-4.22a37.42,37.42,0,0,1,8.68,1,35.6,35.6,0,0,1,8,2.94v10.77A50.83,50.83,0,0,0,207,441a23.53,23.53,0,0,0-7-1.2,7.88,7.88,0,0,0-4.3,1,3.12,3.12,0,0,0-1.49,2.78q0,2.37,8.35,5.82c2.27.9,4.07,1.64,5.37,2.24a18.74,18.74,0,0,1,7.8,5.56,13,13,0,0,1,2.44,8.06q0,7.57-5.22,11.65c-3.5,2.73-8.45,4.08-14.89,4.08A45.31,45.31,0,0,1,189,480,34.73,34.73,0,0,1,180.92,477.26Z"/><path class="cls-2" d="M249.18,468.19v-12c-5.27,1.84-8.79,3.48-10.55,4.87a6.15,6.15,0,0,0-2.65,5,5,5,0,0,0,1.44,3.77,5.5,5.5,0,0,0,4,1.39,10,10,0,0,0,3.66-.78,21,21,0,0,0,4.12-2.25Zm.77,7.16a24.73,24.73,0,0,1-7.2,4.14,23.29,23.29,0,0,1-8,1.34q-7.08,0-10.69-3.43c-2.41-2.29-3.6-5.69-3.6-10.19q0-5.9,5.33-9.68t23.39-9c0-.18,0-.37.07-.57s0-.49,0-.84a5.94,5.94,0,0,0-2.34-5.16c-1.57-1.11-4-1.67-7.25-1.67a20.1,20.1,0,0,0-8.46,2,32.74,32.74,0,0,0-8.45,5.8L223,436a33.37,33.37,0,0,1,9.77-4.45,45.5,45.5,0,0,1,12-1.46q10.59,0,15.31,4.06t4.75,13v19.48a4.54,4.54,0,0,0,.46,2.38,1.78,1.78,0,0,0,1.55.67,8.12,8.12,0,0,0,2-.27,19.05,19.05,0,0,0,2.82-1V477a49.73,49.73,0,0,1-7.41,2.94,22.47,22.47,0,0,1-6.11.93,10.4,10.4,0,0,1-5.75-1.37A5.55,5.55,0,0,1,250,475.35Z"/><path class="cls-2" d="M337.7,466V445a15.45,15.45,0,0,0-4.13-2.27,12.41,12.41,0,0,0-4.33-.78,11.26,11.26,0,0,0-8.87,3.64c-2.16,2.41-3.26,5.72-3.26,9.88a14.38,14.38,0,0,0,3.26,9.8,10.8,10.8,0,0,0,8.57,3.71,12.73,12.73,0,0,0,4.4-.76A17.27,17.27,0,0,0,337.7,466Zm.62,9.9a20.57,20.57,0,0,1-6.49,3.82,22.35,22.35,0,0,1-7.62,1.25q-10.32,0-16.67-7t-6.37-18.41c0-7.58,2.13-13.76,6.39-18.47s9.8-7.1,16.65-7.1a22.18,22.18,0,0,1,7.33,1.16,20,20,0,0,1,6.16,3.47v-26.8h15.42v72.12h-14.8Z"/><path class="cls-2" d="M374.25,455.49c0,4.15,1,7.49,3,10a10.37,10.37,0,0,0,16,0c2-2.48,3-5.82,3-10s-1-7.52-3-10a10.21,10.21,0,0,0-15.91,0q-3,3.77-3,10Zm-15.84,0c0-7.51,2.48-13.65,7.44-18.37S377.27,430,385.21,430s14.45,2.37,19.45,7.11,7.49,10.87,7.49,18.35-2.5,13.55-7.48,18.27-11.47,7.06-19.46,7.06-14.4-2.34-19.36-7S358.41,463,358.41,455.5Z"/><path class="cls-2" d="M510.82,473.82a53.69,53.69,0,0,1-27.6,7.32,45.6,45.6,0,0,1-15.54-2.56,35.85,35.85,0,0,1-12.4-7.59A34.89,34.89,0,0,1,447,458.83a39,39,0,0,1-2.86-15q0-16.81,11.21-27.1t29.61-10.28a56.68,56.68,0,0,1,12.87,1.45,57.57,57.57,0,0,1,12.4,4.43V429.3a49.24,49.24,0,0,0-12-5.79,39.62,39.62,0,0,0-12.07-1.92c-7.27,0-13,2-17.18,5.93s-6.26,9.4-6.26,16.35q0,10.11,6,16.14t16.09,6a39.22,39.22,0,0,0,13-2.29,54.92,54.92,0,0,0,13-6.8Z"/><path class="cls-2" d="M517.09,479.88V431h15.42v13.09q3.93-7.4,7.53-10.61a11.64,11.64,0,0,1,7.9-3.22,12.74,12.74,0,0,1,4.45.86,29,29,0,0,1,5.25,2.71l-4.14,14.06a19.49,19.49,0,0,0-4.27-2.65,10,10,0,0,0-3.88-.83,10.34,10.34,0,0,0-7.86,3.87,23.08,23.08,0,0,0-5,10.6v21Z"/><path class="cls-2" d="M606,474.53a38.27,38.27,0,0,1-10.54,4.82,42.75,42.75,0,0,1-11.83,1.58q-12.61,0-19.78-6.91t-7.16-19.13q0-11.28,7-18.08T582.41,430q11.48,0,18.14,7.34t6.65,20.24v.51H572.57v.21a11.39,11.39,0,0,0,4,9.18q4,3.39,10.87,3.38a27.31,27.31,0,0,0,9.29-1.65,40.12,40.12,0,0,0,9.33-4.89v10.17Zm-33.36-23.9,19-.05a12.18,12.18,0,0,0-2.87-7.41,8.2,8.2,0,0,0-6.31-2.68,8.85,8.85,0,0,0-6.6,2.68,12.61,12.61,0,0,0-3.22,7.46Zm1.58-26.4,10.52-18h11.44l-15.2,18Z"/><path class="cls-2" d="M646.42,466V445a15.61,15.61,0,0,0-4.13-2.27A12.45,12.45,0,0,0,638,442a11.26,11.26,0,0,0-8.87,3.64c-2.17,2.41-3.26,5.72-3.26,9.88a14.34,14.34,0,0,0,3.26,9.8,10.79,10.79,0,0,0,8.57,3.71,12.73,12.73,0,0,0,4.4-.76,17.61,17.61,0,0,0,4.36-2.28Zm.62,9.9a20.62,20.62,0,0,1-6.5,3.82,22.31,22.31,0,0,1-7.62,1.25c-6.88,0-12.42-2.34-16.66-7s-6.37-10.8-6.37-18.41S612,441.74,616.28,437s9.8-7.1,16.64-7.1a22.25,22.25,0,0,1,7.34,1.16,20,20,0,0,1,6.16,3.47v-26.8h15.42v72.12H647Z"/><path class="cls-2" d="M670.08,479.88V431H685.5v48.89Zm-.53-64.71A8.19,8.19,0,1,1,672,421,8,8,0,0,1,669.55,415.17Z"/><path class="cls-2" d="M695.87,441.65h-7v-3.29l20-21.63h2.32V431h16.69v10.66H711.18v18.06c0,3.75.53,6.26,1.6,7.51s3,1.89,5.81,1.89a17.43,17.43,0,0,0,4.37-.6,27.84,27.84,0,0,0,4.91-1.83l.1,11.51a43.21,43.21,0,0,1-7.43,2.07,42.22,42.22,0,0,1-7.39.67c-6.21,0-10.66-1.6-13.3-4.8s-4-8.71-4-16.53Z"/><path class="cls-2" d="M745.63,455.49c0,4.15,1,7.49,3,10a10.37,10.37,0,0,0,16,0c2-2.48,3-5.82,3-10s-1-7.52-3-10a10.2,10.2,0,0,0-15.9,0q-3,3.77-3,10Zm-15.84,0c0-7.51,2.48-13.65,7.45-18.37S748.66,430,756.59,430,771,432.41,776,437.15s7.5,10.87,7.5,18.35-2.5,13.55-7.48,18.27-11.48,7.06-19.47,7.06-14.39-2.34-19.35-7S729.79,463,729.79,455.5Z"/><path class="cls-2" d="M486.11,270.14h54.27C514.12,303,483.23,314.09,443,309.56,460.86,298.8,474.45,288.2,486.11,270.14Z"/><path class="cls-1" d="M454.46,114.23c55.92,0,117.53,31.36,138.1,78.45H553.17C539.71,158.44,498.79,126.78,454.46,114.23Z"/><path class="cls-1" d="M489.42,207.76h53.07c6.25,13.94,7,30.44,1,49.31H490.68C495.44,241.37,496,225.11,489.42,207.76Z"/><path class="cls-2" d="M557.05,207.76h40.54c6.07,10.77,8,32.8,2.23,49.31H557C561.57,243.75,561.27,224.16,557.05,207.76Z"/><path class="cls-2" d="M359.31,257.07H314.1c-1.71-17.74,1.83-34.65,13.44-49.31h45.17C361.36,221.46,357.08,238,359.31,257.07Z"/><path class="cls-1" d="M235.3,207.76h74.24c-8.21,13.13-12.46,29.25-10.77,49.31h-66C229.22,243.37,229.52,227.26,235.3,207.76Z"/><path class="cls-2" d="M236.53,270.14h64.52c11.16,44,50.57,72.78,104.89,93.57C326.82,356.91,260.47,329.39,236.53,270.14Z"/><path class="cls-1" d="M344.26,192.68c18.5-11.5,41.6-17.45,69.74-17.33a130.2,130.2,0,0,0-26.75,17.33Z"/><rect class="cls-3" width="841.89" height="595.28"/></svg>